<?xml version="1.0" standalone="no"?>
<!DOCTYPE svg PUBLIC "-//W3C//DTD SVG 20010904//EN"
 "http://www.w3.org/TR/2001/REC-SVG-20010904/DTD/svg10.dtd">
<svg version="1.0" xmlns="http://www.w3.org/2000/svg"
 width="700.000000pt" height="700.000000pt" viewBox="0 0 700.000000 700.000000"
 preserveAspectRatio="xMidYMid meet">
<metadata>
Created by potrace 1.14, written by Peter Selinger 2001-2017
</metadata>
<g transform="translate(0.000000,700.000000) scale(0.100000,-0.100000)"
fill="#000000" stroke="none">
<path d="M1903 6304 c-69 -25 -125 -84 -209 -221 -42 -71 -93 -154 -113 -186
-20 -32 -40 -66 -46 -75 -5 -10 -50 -83 -100 -162 -49 -80 -94 -153 -100 -163
-16 -29 -448 -730 -463 -752 -7 -11 -121 -195 -252 -410 -131 -214 -244 -395
-249 -402 -6 -7 -11 -14 -11 -17 0 -3 -27 -48 -60 -100 -90 -145 -105 -234
-57 -336 11 -23 886 -1452 1029 -1680 33 -52 162 -261 286 -464 242 -395 263
-421 355 -448 32 -9 395 -12 1556 -13 1424 0 1518 1 1572 18 81 25 134 81 249
265 52 84 131 209 175 277 105 163 395 621 465 733 30 49 79 127 109 173 98
152 117 181 305 479 102 162 189 300 193 305 36 46 223 358 233 389 18 55 14
140 -9 191 -10 24 -39 74 -63 111 -61 95 -729 1148 -748 1179 -8 14 -134 212
-280 441 -146 229 -283 445 -305 480 -197 314 -215 337 -293 375 l-47 24
-1540 2 c-1341 1 -1545 0 -1582 -13z m2890 -574 c2 -3 133 -210 291 -460 159
-250 299 -471 311 -490 19 -29 452 -710 538 -847 l27 -43 -1148 0 -1148 0
-563 918 c-311 504 -566 919 -567 923 -3 6 2253 6 2259 -1z m-2208 -1205 c301
-490 552 -900 557 -911 9 -19 -68 -149 -563 -953 -447 -728 -575 -929 -584
-919 -10 11 -123 192 -150 240 -5 10 -232 378 -503 818 l-493 800 20 28 c10
15 81 128 156 252 76 124 148 241 160 260 12 19 120 195 240 390 120 195 234
382 255 415 21 33 102 164 181 292 l143 232 16 -27 c9 -15 263 -427 565 -917z
m3368 -1230 c-8 -13 -494 -782 -538 -850 -18 -27 -162 -255 -320 -505 -159
-250 -293 -461 -300 -468 -9 -10 -239 -12 -1135 -12 -618 0 -1124 1 -1126 2
-1 2 174 289 389 639 216 350 471 764 567 920 l175 284 1146 0 c768 0 1145 -3
1142 -10z"/>
</g>
</svg>
